<?xml version="1.0" encoding="UTF-8"?>
<svg width="1024" height="278" version="1.1" viewBox="-8.72 -8.72 1134 308" xmlns="http://www.w3.org/2000/svg">
<title>Mozilla Foundation logo until 2017</title>
 <path d="m1046 196c-35.1 0-47.5 6.4-47.5 29.6 0 15.1 9.61 25.4 22.5 25.4 9.45 0 19-4.94 26.5-13.3l0.829-41.7h-2.39zm-65.9-102c18.9-7.99 35.1-11.4 53-11.4 32.7 0 55 12.1 62.7 33.7 2.52 7.96 3.68 14 3.45 34.9l-1.23 65.2v3.44c0 20.8 3.45 28.8 18.3 39.8l-27 31.2c-11.9-4.97-22.4-13.7-27.4-23.5-3.74 3.83-7.95 7.54-11.8 10.2-9.41 6.83-23.2 10.6-39.1 10.6-43.2 0-66.7-22-66.7-60.7 0-45.6 31.6-66.8 93.3-66.8 3.71 0 7.23 0 11.4 0.432v-7.92c0-21.7-4.21-28.9-22.9-28.9-16.1 0-35.2 7.92-56 22l-21.6-36.4c10.3-6.46 17.9-10.2 31.6-15.9m-79.7-43.2v151c0 33.4 0.434 37.9 3.55 43.2 1.79 3.44 5.9 5.3 10.1 5.3 1.92 0 3.08 0 5.76-0.699l8.65 30.3c-8.65 3.4-19.3 5.29-30.3 5.29-21.6 0-39.1-10.2-45.2-26.5-3.88-9.88-4.51-16-4.51-43.6v-145c0-25.4-0.76-40.9-2.72-58.4l51.9-11.7c2.09 10.6 2.72 23.1 2.72 50.5m-105 0v151c0 33.4 0.399 37.9 3.45 43.2 1.92 3.44 6.03 5.3 10.3 5.3 1.82 0 2.92 0 5.67-0.699l8.68 30.3c-8.68 3.4-19.3 5.29-30.3 5.29-21.7 0-39.1-10.2-45.1-26.5-3.81-9.88-4.64-16-4.64-43.6v-145c0-25.4-0.66-40.9-2.55-58.4l52-11.7c1.82 10.6 2.62 23.1 2.62 50.5m-92.5 31.4v199h-50.8v-191l50.8-7.99zm5.96-48.9c0 17.5-13.9 31.4-31.5 31.4-17 0-31-14-31-31.4 0-17.4 14.4-31.5 31.8-31.5 17 0 30.6 14.1 30.6 31.5m-85.9 53.5v34.9l-85.8 124h89.1l-12.2 35.3h-143v-31.5l91.3-127h-83.7v-35.7h144m-277 53.5c-3.48 10.3-5.34 23.9-5.34 43.3 0 22.3 2.28 39.1 6.43 48.9 4.57 10.6 16 15.9 25.8 15.9 22 0 31.4-19.7 31.4-65.6 0-26.2-3.42-43.3-10.2-52-4.88-6.4-12.8-10.2-21.9-10.2-12.2 0-22 7.55-26.1 19.7zm91.4-28c15.5 18.2 22.4 39.4 22.4 70.9 0 33.4-7.66 56.2-24.4 75.1-14.7 16.7-34.1 26.9-64 26.9-52.8 0-87.2-39.5-87.2-100 0-61.1 34.8-102 87.2-102 27.7 0 49.3 9.51 66 29.2m-391-28.8c3.38 5.22 4.87 9.88 6.76 19.7 13.2-12.9 29.5-19.7 47.3-19.7 16.1 0 29.3 5.22 39.5 15.9 2.75 2.67 5.4 6.12 7.69 9.5 17.8-18.2 33.7-25.4 55-25.4 15.2 0 29.6 4.54 38.3 12.1 11 9.48 14.4 20.9 14.4 47.4v138h-49.3v-128c0-23.2-2.75-27.7-16-27.7-9.48 0-22.8 6.46-33.7 16.3v140h-48.1v-126c0-24.2-3.51-29.9-17.6-29.9-9.38 0-22.4 4.86-33.3 14.8v141h-49.6v-135c0-28-1.92-40.2-7.26-49.7l46-12.5" style="fill:#4e4f54"/>
</svg>
